<?xml version="1.0" encoding="UTF-8"?>
<svg id="Warstwa_1" xmlns="http://www.w3.org/2000/svg" version="1.1" xmlns:xlink="http://www.w3.org/1999/xlink" viewBox="0 0 909.24 249.42">
  
  <defs>
    
    <linearGradient id="Gradient_bez_nazwy_3" data-name="Gradient bez nazwy 3" x1="0" y1="124.71" x2="216" y2="124.71" gradientUnits="userSpaceOnUse">
      <stop offset="0" stop-color="#08aeea"></stop>
      <stop offset="1" stop-color="#23c878"></stop>
    </linearGradient>
  </defs>
  <path class="st0" d="M108,0L0,62.35v124.71l104,60.05,4,2.31,4-2.31V60.38l18.9-10.92h.01l53.71,31.01v88.47l-56.62,32.69-8,4.62v36.24l8-4.62,88-50.81V62.35L108,0ZM104,210.87l-72.61-41.93v-43.23l20.2,11.66,8,4.62,44.41,25.64v43.24ZM104,158.39l-36.41-21.02-8-4.62-20.21-11.67-7.99-4.61v-36l8-4.62.25-.15,11.95,6.9,8,4.62,20.2,11.66,8,4.62,16.21,9.36v45.53ZM104,103.62l-8.2-4.74h0l-7.99-4.62h0l-20.2-11.66-8-4.62-11.94-6.9,11.94-6.89,8-4.62,17.51-10.11,18.9,10.92v43.24ZM112,51.14l-4,2.31-4-2.31-10.9-6.3,10.9-6.29,4-2.31,4,2.31,10.9,6.29-10.9,6.3ZM208,182.44l-80,46.19v-17.76l64.62-37.31v-97.71l-53.71-31.01-30.91-17.84-30.9,17.84-37.45,21.62-8.01,4.63-8.25,4.76h-.01v97.71h.01l7.99,4.61,72.62,41.94v17.76L8,182.44v-115.47L108,9.24l100,57.73v115.47Z"></path>
  <g>
    <path class="st1" d="M278.78,46.96v48.51h-11.48v-48.51h11.48ZM306.64,46.96l-15.47,21.77,16.73,26.74h-13.3l-15.47-25.9,15.4-22.61h12.11Z"></path>
    <path class="st1" d="M324.84,46.96v39.41h18.9l-1.19,9.1h-29.19v-48.51h11.48Z"></path>
    <path class="st1" d="M376.57,95.47l-2.52-10.43h-14.14l-2.45,10.43h-11.9l14.63-48.51h13.93l14.63,48.51h-12.18ZM361.87,76.71h10.22l-5.11-21.42-5.11,21.42Z"></path>
    <path class="st1" d="M419.16,47.31c2.68,1.03,5.12,2.59,7.32,4.69l-5.32,6.23c-3.31-2.71-6.86-4.06-10.64-4.06-2.01,0-3.59.41-4.76,1.22-1.17.82-1.75,2-1.75,3.54,0,1.07.26,1.95.77,2.62.51.68,1.42,1.32,2.73,1.92,1.31.61,3.27,1.33,5.88,2.17,4.95,1.59,8.59,3.54,10.92,5.85,2.33,2.31,3.5,5.59,3.5,9.83,0,3.03-.77,5.71-2.31,8.01-1.54,2.31-3.76,4.11-6.65,5.39-2.89,1.28-6.32,1.93-10.29,1.93s-7.48-.63-10.54-1.89c-3.06-1.26-5.68-2.94-7.88-5.04l5.81-6.37c1.87,1.59,3.79,2.78,5.77,3.57,1.98.79,4.14,1.19,6.48,1.19s4.26-.53,5.63-1.58c1.38-1.05,2.06-2.51,2.06-4.38,0-1.21-.26-2.23-.77-3.04-.51-.82-1.4-1.55-2.66-2.21-1.26-.65-3.08-1.35-5.46-2.1-5.37-1.63-9.18-3.64-11.45-6.02s-3.39-5.39-3.39-9.03c0-2.8.75-5.26,2.24-7.38,1.49-2.12,3.57-3.76,6.23-4.9,2.66-1.14,5.67-1.71,9.03-1.71,3.64,0,6.8.51,9.48,1.54Z"></path>
    <path class="st1" d="M467.57,46.96l-1.12,8.82h-11.97v39.69h-11.48v-39.69h-12.53v-8.82h37.1Z"></path>
    <path class="st1" d="M503.69,46.96l-1.19,8.19h-17.08v11.62h14.91v8.05h-14.91v12.39h18.27v8.26h-29.75v-48.51h29.75Z"></path>
    <path class="st1" d="M528.47,76.92h-4.48v18.55h-11.48v-48.51h15.89c6.63,0,11.61,1.21,14.94,3.64,3.34,2.43,5,6.14,5,11.13,0,3.13-.75,5.73-2.24,7.81-1.49,2.08-3.85,3.84-7.07,5.28l12.32,20.65h-12.95l-9.94-18.55ZM523.99,69.01h4.83c2.57,0,4.49-.58,5.77-1.75,1.28-1.17,1.92-3.01,1.92-5.53,0-2.33-.69-4.04-2.06-5.11-1.38-1.07-3.49-1.61-6.33-1.61h-4.13v14Z"></path>
    <path class="st1" d="M292.55,124.22l-4.15,4.35c-1.23-.93-2.38-1.61-3.42-2.02-1.05-.42-2.26-.62-3.62-.62-2.57,0-4.62,1.01-6.15,3.02-1.53,2.02-2.3,5.08-2.3,9.18,0,4.43.58,7.57,1.75,9.42,1.17,1.85,2.98,2.77,5.45,2.77,1.73,0,3.3-.38,4.7-1.15v-7.85h-4.5l-.8-5.8h13.25v17.15c-1.8,1.17-3.78,2.07-5.95,2.7-2.17.63-4.33.95-6.5.95-5.27,0-9.23-1.54-11.9-4.62-2.67-3.08-4-7.61-4-13.57,0-3.8.73-7.07,2.18-9.8,1.45-2.73,3.43-4.81,5.95-6.22,2.52-1.42,5.34-2.12,8.48-2.12,4.47,0,8.32,1.42,11.55,4.25Z"></path>
    <path class="st1" d="M325.03,124.72c2.75,3.17,4.12,7.63,4.12,13.4,0,3.77-.62,7.02-1.88,9.75s-3.05,4.82-5.4,6.27-5.14,2.17-8.38,2.17-6.02-.72-8.35-2.15c-2.33-1.43-4.12-3.51-5.38-6.23-1.25-2.72-1.88-5.99-1.88-9.82s.62-6.97,1.88-9.7,3.04-4.83,5.38-6.28c2.33-1.45,5.12-2.17,8.35-2.17,4.93,0,8.77,1.58,11.52,4.75ZM308.23,128.85c-1.15,1.92-1.73,5.01-1.73,9.28s.58,7.37,1.75,9.3c1.17,1.93,2.92,2.9,5.25,2.9s4.17-.96,5.33-2.88c1.15-1.92,1.72-5.02,1.72-9.32s-.58-7.4-1.75-9.3c-1.17-1.9-2.93-2.85-5.3-2.85s-4.12.96-5.27,2.88Z"></path>
    <path class="st1" d="M353.22,121.07c1.92.73,3.66,1.85,5.23,3.35l-3.8,4.45c-2.37-1.93-4.9-2.9-7.6-2.9-1.43,0-2.57.29-3.4.88-.83.58-1.25,1.42-1.25,2.53,0,.77.18,1.39.55,1.88.37.48,1.02.94,1.95,1.38.93.43,2.33.95,4.2,1.55,3.53,1.13,6.13,2.52,7.8,4.17,1.67,1.65,2.5,3.99,2.5,7.03,0,2.17-.55,4.07-1.65,5.72s-2.68,2.93-4.75,3.85c-2.07.92-4.52,1.38-7.35,1.38s-5.34-.45-7.52-1.35c-2.18-.9-4.06-2.1-5.62-3.6l4.15-4.55c1.33,1.13,2.71,1.98,4.12,2.55,1.42.57,2.96.85,4.62.85s3.04-.38,4.02-1.12c.98-.75,1.48-1.79,1.48-3.12,0-.87-.18-1.59-.55-2.17-.37-.58-1-1.11-1.9-1.58s-2.2-.97-3.9-1.5c-3.83-1.17-6.56-2.6-8.17-4.3-1.62-1.7-2.43-3.85-2.43-6.45,0-2,.53-3.76,1.6-5.28,1.07-1.52,2.55-2.68,4.45-3.5,1.9-.82,4.05-1.22,6.45-1.22,2.6,0,4.86.37,6.77,1.1Z"></path>
    <path class="st1" d="M387,123.67c2.53,1.9,3.8,4.72,3.8,8.45s-1.24,6.84-3.73,8.82c-2.48,1.98-5.81,2.98-9.97,2.98h-3.75v11.55h-8.2v-34.65h11.2c4.57,0,8.12.95,10.65,2.85ZM380.82,136.65c1.02-.92,1.53-2.42,1.53-4.52,0-3.63-2.03-5.45-6.1-5.45h-2.9v11.35h3.05c1.93,0,3.41-.46,4.42-1.38Z"></path>
    <path class="st1" d="M421.92,124.72c2.75,3.17,4.12,7.63,4.12,13.4,0,3.77-.62,7.02-1.88,9.75s-3.05,4.82-5.4,6.27-5.14,2.17-8.38,2.17-6.02-.72-8.35-2.15c-2.33-1.43-4.12-3.51-5.38-6.23-1.25-2.72-1.88-5.99-1.88-9.82s.62-6.97,1.88-9.7,3.04-4.83,5.38-6.28c2.33-1.45,5.12-2.17,8.35-2.17,4.93,0,8.78,1.58,11.53,4.75ZM405.12,128.85c-1.15,1.92-1.72,5.01-1.72,9.28s.58,7.37,1.75,9.3c1.17,1.93,2.92,2.9,5.25,2.9s4.17-.96,5.33-2.88c1.15-1.92,1.72-5.02,1.72-9.32s-.58-7.4-1.75-9.3c-1.17-1.9-2.93-2.85-5.3-2.85s-4.12.96-5.28,2.88Z"></path>
    <path class="st1" d="M454.92,124.5c3.28,2.45,4.93,6.94,4.93,13.47s-1.6,10.96-4.8,13.58c-3.2,2.62-7.35,3.92-12.45,3.92h-10.4v-34.65h9.65c5.43,0,9.79,1.23,13.07,3.68ZM440.4,126.77v22.75h2.7c2.7,0,4.75-.84,6.15-2.52,1.4-1.68,2.1-4.69,2.1-9.03,0-2.97-.35-5.27-1.05-6.9-.7-1.63-1.65-2.76-2.85-3.38-1.2-.62-2.68-.92-4.45-.92h-2.6Z"></path>
    <path class="st1" d="M483.75,155.47l-1.8-7.45h-10.1l-1.75,7.45h-8.5l10.45-34.65h9.95l10.45,34.65h-8.7ZM473.25,142.07h7.3l-3.65-15.3-3.65,15.3Z"></path>
    <path class="st1" d="M507.65,142.22h-3.2v13.25h-8.2v-34.65h11.35c4.73,0,8.29.87,10.68,2.6,2.38,1.73,3.57,4.38,3.57,7.95,0,2.23-.53,4.09-1.6,5.57-1.07,1.48-2.75,2.74-5.05,3.78l8.8,14.75h-9.25l-7.1-13.25ZM504.45,136.57h3.45c1.83,0,3.21-.42,4.12-1.25.92-.83,1.38-2.15,1.38-3.95,0-1.67-.49-2.88-1.48-3.65-.98-.77-2.49-1.15-4.52-1.15h-2.95v10Z"></path>
    <path class="st1" d="M536.55,120.82v34.65h-8.2v-34.65h8.2ZM556.45,120.82l-11.05,15.55,11.95,19.1h-9.5l-11.05-18.5,11-16.15h8.65Z"></path>
    <path class="st1" d="M569.45,120.82v34.65h-8.2v-34.65h8.2Z"></path>
    <path class="st1" d="M610.17,120.92c1.68.63,3.28,1.58,4.78,2.85l-3.9,4.65c-1.03-.8-2.05-1.4-3.05-1.8-1-.4-2.07-.6-3.2-.6-2.33,0-4.17.98-5.52,2.95-1.35,1.97-2.03,5-2.03,9.1s.67,7.03,2.03,8.98c1.35,1.95,3.22,2.92,5.62,2.92,1.27,0,2.42-.24,3.45-.72s2.15-1.18,3.35-2.08l3.65,4.7c-1.3,1.3-2.88,2.37-4.72,3.2-1.85.83-3.89,1.25-6.12,1.25-3.2,0-5.98-.7-8.35-2.1-2.37-1.4-4.21-3.47-5.53-6.22-1.32-2.75-1.97-6.06-1.97-9.93s.67-7.02,2.02-9.75c1.35-2.73,3.22-4.81,5.6-6.22,2.38-1.42,5.09-2.12,8.12-2.12,2.17,0,4.09.32,5.77.95Z"></path>
    <path class="st1" d="M646.1,120.82l-11.1,21.65v13h-8.2v-12.95l-11.1-21.7h8.95l6.4,15.25,6.4-15.25h8.65Z"></path>
    <path class="st1" d="M661.65,142.22h-3.2v13.25h-8.2v-34.65h11.35c4.73,0,8.29.87,10.68,2.6,2.38,1.73,3.57,4.38,3.57,7.95,0,2.23-.53,4.09-1.6,5.57-1.07,1.48-2.75,2.74-5.05,3.78l8.8,14.75h-9.25l-7.1-13.25ZM658.45,136.57h3.45c1.83,0,3.21-.42,4.12-1.25.92-.83,1.38-2.15,1.38-3.95,0-1.67-.49-2.88-1.48-3.65-.98-.77-2.49-1.15-4.52-1.15h-2.95v10Z"></path>
    <path class="st1" d="M690.55,120.82v34.65h-8.2v-34.65h8.2ZM710.45,120.82l-11.05,15.55,11.95,19.1h-9.5l-11.05-18.5,11-16.15h8.65Z"></path>
    <path class="st1" d="M741.35,143.97c0,2.37-.51,4.48-1.52,6.35-1.02,1.87-2.54,3.33-4.58,4.4-2.03,1.07-4.52,1.6-7.45,1.6-4.4,0-7.75-1.12-10.05-3.35-2.3-2.23-3.45-5.23-3.45-9v-23.15h8.2v22.8c0,2.23.42,3.89,1.27,4.97.85,1.08,2.19,1.62,4.03,1.62s3.22-.54,4.08-1.62c.85-1.08,1.27-2.74,1.27-4.97v-22.8h8.2v23.15Z"></path>
    <path class="st1" d="M756.8,120.82v28.15h13.5l-.85,6.5h-20.85v-34.65h8.2Z"></path>
    <path class="st1" d="M793.74,155.47l-1.8-7.45h-10.1l-1.75,7.45h-8.5l10.45-34.65h9.95l10.45,34.65h-8.7ZM783.24,142.07h7.3l-3.65-15.3-3.65,15.3Z"></path>
    <path class="st1" d="M817.65,142.22h-3.2v13.25h-8.2v-34.65h11.35c4.73,0,8.29.87,10.68,2.6,2.38,1.73,3.57,4.38,3.57,7.95,0,2.23-.53,4.09-1.6,5.57-1.07,1.48-2.75,2.74-5.05,3.78l8.8,14.75h-9.25l-7.1-13.25ZM814.45,136.57h3.45c1.83,0,3.21-.42,4.12-1.25.92-.83,1.38-2.15,1.38-3.95,0-1.67-.49-2.88-1.48-3.65-.98-.77-2.49-1.15-4.52-1.15h-2.95v10Z"></path>
    <path class="st1" d="M865.04,155.47h-10.45l-10-26.85c.33,2.63.59,4.96.78,6.97.18,2.02.27,4.41.27,7.17v12.7h-7.3v-34.65h10.2l10.25,26.9c-.73-4.57-1.1-8.87-1.1-12.9v-14h7.35v34.65Z"></path>
    <path class="st1" d="M893.99,120.82l-.85,5.85h-12.2v8.3h10.65v5.75h-10.65v8.85h13.05v5.9h-21.25v-34.65h21.25Z"></path>
    <path class="st1" d="M909.24,150.22c0,2.77-.49,5.05-1.47,6.85-.98,1.8-2.28,3.21-3.9,4.23-1.62,1.02-3.54,1.89-5.77,2.62l-2.2-5.8c1.47-.57,2.57-1.22,3.3-1.95.73-.73,1.22-1.58,1.47-2.55s.38-2.2.38-3.7v-29.1h8.2v29.4Z"></path>
    <path class="st1" d="M274.2,180.82v34.65h-8.2v-34.65h8.2Z"></path>
    <path class="st1" d="M306.4,202.22h-3.2v13.25h-8.2v-34.65h11.35c4.73,0,8.29.87,10.67,2.6,2.38,1.73,3.58,4.38,3.58,7.95,0,2.23-.53,4.09-1.6,5.57-1.07,1.48-2.75,2.74-5.05,3.78l8.8,14.75h-9.25l-7.1-13.25ZM303.2,196.57h3.45c1.83,0,3.21-.42,4.12-1.25.92-.83,1.38-2.15,1.38-3.95,0-1.67-.49-2.88-1.48-3.65-.98-.77-2.49-1.15-4.52-1.15h-2.95v10Z"></path>
    <path class="st1" d="M348.35,180.82l-.85,5.85h-12.2v8.3h10.65v5.75h-10.65v8.85h13.05v5.9h-21.25v-34.65h21.25Z"></path>
    <path class="st1" d="M373.87,180.92c1.68.63,3.28,1.58,4.78,2.85l-3.9,4.65c-1.03-.8-2.05-1.4-3.05-1.8-1-.4-2.07-.6-3.2-.6-2.33,0-4.17.98-5.52,2.95-1.35,1.97-2.03,5-2.03,9.1s.67,7.03,2.03,8.98c1.35,1.95,3.22,2.92,5.62,2.92,1.27,0,2.42-.24,3.45-.72s2.15-1.18,3.35-2.08l3.65,4.7c-1.3,1.3-2.88,2.37-4.72,3.2-1.85.83-3.89,1.25-6.12,1.25-3.2,0-5.98-.7-8.35-2.1-2.37-1.4-4.21-3.47-5.53-6.22-1.32-2.75-1.98-6.06-1.98-9.93s.68-7.02,2.02-9.75c1.35-2.73,3.22-4.81,5.6-6.22,2.38-1.42,5.09-2.12,8.12-2.12,2.17,0,4.09.32,5.77.95Z"></path>
    <path class="st1" d="M409.8,180.82l-11.1,21.65v13h-8.2v-12.95l-11.1-21.7h8.95l6.4,15.25,6.4-15.25h8.65Z"></path>
    <path class="st1" d="M422.15,180.82v34.65h-8.2v-34.65h8.2ZM442.05,180.82l-11.05,15.55,11.95,19.1h-9.5l-11.05-18.5,11-16.15h8.65Z"></path>
    <path class="st1" d="M455.05,180.82v28.15h13.5l-.85,6.5h-20.85v-34.65h8.2Z"></path>
    <path class="st1" d="M481.95,180.82v34.65h-8.2v-34.65h8.2Z"></path>
    <path class="st1" d="M516.35,215.47h-10.45l-10-26.85c.33,2.63.59,4.96.78,6.97.18,2.02.27,4.41.27,7.17v12.7h-7.3v-34.65h10.2l10.25,26.9c-.73-4.57-1.1-8.87-1.1-12.9v-14h7.35v34.65Z"></path>
    <path class="st1" d="M550.6,184.22l-4.15,4.35c-1.23-.93-2.38-1.61-3.43-2.02-1.05-.42-2.26-.62-3.62-.62-2.57,0-4.62,1.01-6.15,3.02-1.53,2.02-2.3,5.08-2.3,9.18,0,4.43.58,7.57,1.75,9.42,1.17,1.85,2.98,2.77,5.45,2.77,1.73,0,3.3-.38,4.7-1.15v-7.85h-4.5l-.8-5.8h13.25v17.15c-1.8,1.17-3.78,2.07-5.95,2.7s-4.33.95-6.5.95c-5.27,0-9.23-1.54-11.9-4.62-2.67-3.08-4-7.61-4-13.57,0-3.8.72-7.07,2.17-9.8,1.45-2.73,3.43-4.81,5.95-6.22,2.52-1.42,5.34-2.12,8.47-2.12,4.47,0,8.32,1.42,11.55,4.25Z"></path>
    <path class="st1" d="M584.1,203.97c0,2.37-.51,4.48-1.52,6.35-1.02,1.87-2.54,3.33-4.58,4.4-2.03,1.07-4.52,1.6-7.45,1.6-4.4,0-7.75-1.12-10.05-3.35-2.3-2.23-3.45-5.23-3.45-9v-23.15h8.2v22.8c0,2.23.42,3.89,1.27,4.97.85,1.08,2.19,1.62,4.03,1.62s3.22-.54,4.08-1.62c.85-1.08,1.27-2.74,1.27-4.97v-22.8h8.2v23.15Z"></path>
  </g>
</svg>